<?xml version="1.0" standalone="no"?>
<!DOCTYPE svg PUBLIC "-//W3C//DTD SVG 20010904//EN"
 "http://www.w3.org/TR/2001/REC-SVG-20010904/DTD/svg10.dtd">
<svg version="1.0" xmlns="http://www.w3.org/2000/svg"
 width="801.000000pt" height="180.000000pt" viewBox="0 0 801.000000 180.000000"
 preserveAspectRatio="xMidYMid meet">

<g transform="translate(0.000000,180.000000) scale(0.100000,-0.100000)"
fill="#000000" stroke="none">
<path d="M4630 225 l0 -115 60 0 c47 0 60 3 60 15 0 11 -12 15 -45 15 -45 0
-45 0 -45 34 0 33 2 35 38 38 20 2 37 8 37 13 0 6 -17 11 -37 13 -36 3 -38 5
-38 38 0 34 0 34 45 34 33 0 45 4 45 15 0 12 -13 15 -60 15 l-60 0 0 -115z"/>
<path d="M4838 334 c-5 -4 -8 -56 -8 -116 l0 -108 48 0 c71 0 87 21 87 116 0
55 -4 77 -16 90 -18 17 -99 31 -111 18z m92 -43 c14 -27 13 -124 -2 -139 -7
-7 -25 -12 -40 -12 l-28 0 0 85 0 85 30 0 c19 0 33 -7 40 -19z"/>
<path d="M5076 319 c-24 -19 -26 -26 -26 -95 0 -84 18 -114 68 -114 42 0 55
14 62 69 l6 51 -33 0 c-36 0 -45 -15 -13 -23 24 -6 26 -39 4 -61 -19 -19 -25
-20 -48 -3 -14 10 -16 25 -14 81 3 80 19 99 62 76 35 -18 47 -3 17 21 -30 24
-52 24 -85 -2z"/>
<path d="M5277 333 c-4 -3 -7 -55 -7 -115 l0 -108 60 0 c47 0 60 3 60 15 0 11
-12 15 -45 15 -45 0 -45 0 -45 35 0 34 1 35 40 35 29 0 40 4 40 15 0 11 -11
15 -40 15 -39 0 -40 1 -40 35 0 35 0 35 45 35 33 0 45 4 45 15 0 11 -13 15
-53 15 -30 0 -57 -3 -60 -7z"/>
<path d="M5480 226 c0 -71 4 -116 10 -116 6 0 10 23 10 51 0 46 2 50 21 47 15
-2 27 -17 39 -48 10 -25 25 -46 34 -48 14 -3 14 2 -4 47 l-20 51 21 21 c16 16
20 28 15 52 -9 43 -17 49 -75 55 l-51 5 0 -117z m96 57 c8 -30 -17 -56 -51
-51 -15 2 -21 12 -23 41 -3 36 -3 37 32 37 30 0 37 -4 42 -27z"/>
<path d="M5697 333 c-4 -3 -7 -46 -7 -95 0 -75 3 -91 20 -108 24 -24 72 -26
94 -5 28 29 36 204 9 213 -10 3 -13 -19 -13 -86 0 -69 -4 -94 -16 -106 -18
-19 -20 -19 -45 -6 -17 9 -19 22 -19 105 0 87 -5 107 -23 88z"/>
<path d="M5920 226 c0 -131 17 -161 22 -38 l3 77 43 -77 c62 -110 72 -105 72
37 0 96 -3 115 -15 115 -12 0 -15 -16 -15 -82 l0 -83 -44 80 c-24 43 -48 81
-55 83 -8 3 -11 -29 -11 -112z"/>
<path d="M6150 225 c0 -96 3 -115 15 -115 12 0 15 15 15 78 l1 77 42 -77 c23
-43 48 -78 55 -78 9 0 12 30 12 115 0 133 -18 158 -22 33 l-3 -83 -45 82 c-25
46 -51 83 -57 83 -10 0 -13 -30 -13 -115z"/>
<path d="M6384 327 c-2 -7 -3 -58 -2 -113 l3 -99 58 0 c67 0 78 19 12 23 -44
3 -45 4 -45 38 0 33 1 34 40 34 29 0 40 4 40 15 0 11 -11 15 -40 15 -39 0 -40
1 -40 34 0 34 1 35 48 38 64 4 55 22 -13 26 -40 2 -57 -1 -61 -11z"/>
<path d="M6590 226 c0 -96 3 -116 15 -116 11 0 15 12 15 50 0 41 3 50 18 50
12 0 23 -16 35 -50 10 -29 24 -50 32 -50 19 0 19 0 -4 52 -18 43 -18 44 0 67
43 53 16 101 -59 109 l-52 5 0 -117z m98 56 c5 -30 -14 -52 -44 -52 -21 0 -24
5 -24 41 0 39 1 40 33 37 25 -2 33 -8 35 -26z"/>
<path d="M6821 314 c-12 -15 -21 -31 -21 -36 0 -24 24 -50 61 -64 32 -13 39
-21 39 -44 0 -35 -25 -46 -57 -24 -19 12 -28 13 -37 4 -16 -16 19 -40 60 -40
44 0 66 24 62 69 -3 32 -8 38 -50 59 -48 22 -56 35 -39 61 6 9 20 11 50 6 44
-7 56 6 22 25 -34 18 -68 12 -90 -16z"/>
</g>
</svg>
